<?xml version="1.0" encoding="UTF-8"?>
<svg width="20px" height="20px" viewBox="0 0 20 20" version="1.1" xmlns="http://www.w3.org/2000/svg" xmlns:xlink="http://www.w3.org/1999/xlink">
    <g id="Symbols" stroke="none" stroke-width="1" fill="none" fill-rule="evenodd">
        <g id="news_item_002" transform="translate(-149.000000, -97.000000)" fill="#82899e" fill-rule="nonzero">
            <g id="news_item_001">
                <g id="Emoji-Reaction-1-Copy-2" transform="translate(142.000000, 92.000000)">
                    <g id="add_reaction_icon" transform="translate(7.000000, 5.000000)">
                        <path d="M8.55,3.03636364 C5.13739638,3.03452495 2.05979732,5.08881279 0.752576209,8.24111985 C-0.554644897,11.3934269 0.166012161,15.0228026 2.57843733,17.4365283 C4.9908625,19.8502539 8.61984928,20.5728669 11.7728604,19.2673449 C14.9258715,17.9618229 16.9818177,14.8853314 16.9818182,11.4727273 C16.9818189,6.81522683 13.2074998,3.03887307 8.55,3.03636364 Z M8.55,18.5363636 C4.64886136,18.5363636 1.48636364,15.3738659 1.48636364,11.4727273 C1.48636364,7.57158863 4.64886136,4.40909091 8.55,4.40909091 C12.4511386,4.40909091 15.6136364,7.57158863 15.6136364,11.4727273 C15.6086279,15.3717895 12.4490622,18.5313552 8.55,18.5363636 Z" id="Shape"></path>
                        <path d="M9.54545455,14.8954545 C11.2136659,14.8947041 12.6750649,13.7777112 13.1136364,12.1681818 C13.1714326,11.9314098 13.1161745,11.681221 12.9640298,11.4908177 C12.8118851,11.3004145 12.5800526,11.1913202 12.3363636,11.1954545 L6.75454545,11.1954545 C6.51085649,11.1913202 6.27902395,11.3004145 6.12687928,11.4908177 C5.97473462,11.681221 5.91947647,11.9314098 5.97727273,12.1681818 C6.41584414,13.7777112 7.87724318,14.8947041 9.54545455,14.8954545 Z" id="Shape"></path>
                        <path d="M19.4045455,2.34545455 L17.6318182,2.34545455 L17.6318182,0.577272727 C17.6330312,0.448700858 17.5828043,0.324977547 17.4923141,0.233633622 C17.4018238,0.142289697 17.2785776,0.0909033691 17.15,0.0909090909 L16.8181818,0.0909090909 C16.552081,0.0909090909 16.3363636,0.306626439 16.3363636,0.572727273 L16.3363636,2.34545455 L14.5454545,2.34545455 C14.2900602,2.35993371 14.090499,2.57146865 14.0909091,2.82727273 L14.0909091,3.18181818 C14.1044375,3.42703463 14.3002381,3.62283524 14.5454545,3.63636364 L16.3136364,3.63636364 L16.3136364,5.40454545 C16.3070681,5.54026642 16.3581129,5.67245134 16.4541944,5.76853288 C16.5502759,5.86461441 16.6824609,5.91565918 16.8181818,5.90909091 L17.1545455,5.90909091 C17.4206463,5.90909091 17.6363636,5.69337356 17.6363636,5.42727273 L17.6363636,3.63636364 L19.4045455,3.63636364 C19.6603495,3.63677374 19.8718845,3.43721248 19.8863636,3.18181818 L19.8863636,2.82727273 C19.8863636,2.56117189 19.6706463,2.34545455 19.4045455,2.34545455 Z" id="Shape"></path>
                        <circle id="Oval" cx="6.72727273" cy="8.7" r="1.28636364"></circle>
                        <circle id="Oval" cx="12.6545455" cy="8.7" r="1.28636364"></circle>
                    </g>
                </g>
            </g>
        </g>
    </g>
</svg>
